HIERARCHY
ROOT Hips
{
	OFFSET 0.000000 71.427986 0.000000
	CHANNELS 6 Xposition Yposition Zposition Xrotation Yrotation Zrotation
	JOINT Pelvis
	{
		OFFSET 0.000000 0.000000 0.000000
		CHANNELS 3 Xrotation Yrotation Zrotation
		JOINT LeftUpLeg
		{
			OFFSET 6.797100 -2.508499 -1.318700
			CHANNELS 3 Xrotation Yrotation Zrotation
			JOINT LeftLeg
			{
				OFFSET 0.069008 -29.241863 0.690200
				CHANNELS 3 Xrotation Yrotation Zrotation
				JOINT LeftFoot
				{
					OFFSET -0.069008 -29.568123 -0.266800
					CHANNELS 3 Xrotation Yrotation Zrotation
					JOINT LeftToeBase
					{
						OFFSET 3.145500 -8.631000 16.059900
						CHANNELS 3 Xrotation Yrotation Zrotation
						End Site
						{
							OFFSET 0.000000 18.501587 0.000000
						}
					}
				}
			}
			JOINT Left_ShortSleeve
			{
				OFFSET 0.265923 -10.480953 1.153800
				CHANNELS 3 Xrotation Yrotation Zrotation
				End Site
				{
					OFFSET 1.725763 19.823879 0.000000
				}
			}
		}
		JOINT RightUpLeg
		{
			OFFSET -6.797100 -2.508499 -1.318700
			CHANNELS 3 Xrotation Yrotation Zrotation
			JOINT RightLeg
			{
				OFFSET -0.082453 -29.241932 0.688000
				CHANNELS 3 Xrotation Yrotation Zrotation
				JOINT RightFoot
				{
					OFFSET 0.082453 -29.568058 -0.264600
					CHANNELS 3 Xrotation Yrotation Zrotation
					JOINT RightToeBase
					{
						OFFSET -3.115300 -8.682800 16.113400
						CHANNELS 3 Xrotation Yrotation Zrotation
						End Site
						{
							OFFSET 0.000000 18.567114 0.000000
						}
					}
				}
			}
			JOINT Right_ShortSleeve
			{
				OFFSET -0.265923 -10.480953 1.153800
				CHANNELS 3 Xrotation Yrotation Zrotation
				End Site
				{
					OFFSET -1.725766 19.823910 0.000000
				}
			}
		}
	}
	JOINT Spine
	{
		OFFSET 0.000000 13.368103 0.470500
		CHANNELS 3 Xrotation Yrotation Zrotation
		JOINT Spine1
		{
			OFFSET 0.147000 13.837402 0.538800
			CHANNELS 3 Xrotation Yrotation Zrotation
			JOINT Spine2
			{
				OFFSET 0.168000 16.242897 -1.435500
				CHANNELS 3 Xrotation Yrotation Zrotation
				JOINT Neck
				{
					OFFSET 0.217200 18.631500 -1.679100
					CHANNELS 3 Xrotation Yrotation Zrotation
					JOINT Head
					{
						OFFSET 0.000000 6.599396 1.385900
						CHANNELS 3 Xrotation Yrotation Zrotation
						JOINT Hat
						{
							OFFSET -0.532200 27.220596 -10.096100
							CHANNELS 3 Xrotation Yrotation Zrotation
							End Site
							{
								OFFSET 0.000000 22.029861 0.000000
							}
						}
						JOINT HairD
						{
							OFFSET -10.777400 17.437393 -1.325900
							CHANNELS 3 Xrotation Yrotation Zrotation
							JOINT HairD1
							{
								OFFSET -3.290299 -11.051193 1.062200
								CHANNELS 3 Xrotation Yrotation Zrotation
								End Site
								{
									OFFSET 0.000000 11.579437 0.000000
								}
							}
						}
						JOINT HairB
						{
							OFFSET -10.777400 17.437393 1.467900
							CHANNELS 3 Xrotation Yrotation Zrotation
							JOINT HairB1
							{
								OFFSET -1.561200 -12.956299 3.590200
								CHANNELS 3 Xrotation Yrotation Zrotation
								End Site
								{
									OFFSET 0.000000 13.534866 0.000000
								}
							}
						}
						JOINT HairA
						{
							OFFSET 9.713100 17.437393 1.467900
							CHANNELS 3 Xrotation Yrotation Zrotation
							JOINT HairA1
							{
								OFFSET 1.561200 -12.956299 3.590200
								CHANNELS 3 Xrotation Yrotation Zrotation
								End Site
								{
									OFFSET 0.000000 13.534866 0.000000
								}
							}
						}
						JOINT HairC
						{
							OFFSET 9.713100 17.437393 -1.325900
							CHANNELS 3 Xrotation Yrotation Zrotation
							JOINT HairC1
							{
								OFFSET 3.290300 -11.051193 1.062200
								CHANNELS 3 Xrotation Yrotation Zrotation
								End Site
								{
									OFFSET 0.000000 11.579437 0.000000
								}
							}
						}
					}
				}
				JOINT LeftShoulder
				{
					OFFSET 5.101800 15.108002 -2.763700
					CHANNELS 3 Xrotation Yrotation Zrotation
					JOINT LeftArm
					{
						OFFSET 9.825497 2.506317 -1.597400
						CHANNELS 3 Xrotation Yrotation Zrotation
						JOINT LeftForeArm
						{
							OFFSET 21.966244 0.000000 0.000000
							CHANNELS 3 Xrotation Yrotation Zrotation
							JOINT LeftHand
							{
								OFFSET 33.879036 0.000000 0.000000
								CHANNELS 3 Xrotation Yrotation Zrotation
								JOINT LeftHandThumb1
								{
									OFFSET 6.715286 -2.359680 3.363841
									CHANNELS 3 Xrotation Yrotation Zrotation
									JOINT LeftHandThumb2
									{
										OFFSET 2.507072 -1.447464 1.447461
										CHANNELS 3 Xrotation Yrotation Zrotation
										JOINT LeftHandThumb3
										{
											OFFSET 2.898338 -1.673355 1.673357
											CHANNELS 3 Xrotation Yrotation Zrotation
											End Site
											{
												OFFSET -0.295959 3.727692 -0.131651
											}
										}
									}
								}
								JOINT LeftHandIndex1
								{
									OFFSET 14.190811 -0.254547 3.840278
									CHANNELS 3 Xrotation Yrotation Zrotation
									JOINT LeftHandIndex2
									{
										OFFSET 3.551727 0.000000 -0.000000
										CHANNELS 3 Xrotation Yrotation Zrotation
										JOINT LeftHandIndex3
										{
											OFFSET 2.894196 0.000000 0.000000
											CHANNELS 3 Xrotation Yrotation Zrotation
											End Site
											{
												OFFSET -1.000603 2.690872 0.366626
											}
										}
									}
								}
								JOINT LeftHandMiddle1
								{
									OFFSET 13.776489 0.000000 0.000000
									CHANNELS 3 Xrotation Yrotation Zrotation
									JOINT LeftHandMiddle2
									{
										OFFSET 3.438232 0.000000 0.000000
										CHANNELS 3 Xrotation Yrotation Zrotation
										JOINT LeftHandMiddle3
										{
											OFFSET 3.691551 0.000000 0.000000
											CHANNELS 3 Xrotation Yrotation Zrotation
											End Site
											{
												OFFSET -1.082298 3.499527 0.457670
											}
										}
									}
								}
								JOINT LeftHandRing1
								{
									OFFSET 13.966164 -0.268127 -3.067488
									CHANNELS 3 Xrotation Yrotation Zrotation
									JOINT LeftHandRing2
									{
										OFFSET 3.162567 0.000000 0.000000
										CHANNELS 3 Xrotation Yrotation Zrotation
										JOINT LeftHandRing3
										{
											OFFSET 3.324348 0.000000 0.000000
											CHANNELS 3 Xrotation Yrotation Zrotation
											End Site
											{
												OFFSET -0.861900 3.184998 0.405154
											}
										}
									}
								}
								JOINT LeftHandPinky1
								{
									OFFSET 13.131393 -0.168503 -5.746925
									CHANNELS 3 Xrotation Yrotation Zrotation
									JOINT LeftHandPinky2
									{
										OFFSET 2.849182 0.000000 0.000000
										CHANNELS 3 Xrotation Yrotation Zrotation
										JOINT LeftHandPinky3
										{
											OFFSET 2.805038 0.000000 0.000000
											CHANNELS 3 Xrotation Yrotation Zrotation
											End Site
											{
												OFFSET -0.882500 2.642609 0.325652
											}
										}
									}
								}
							}
							JOINT Left_Sleeve
							{
								OFFSET 6.592125 -0.646545 0.805568
								CHANNELS 3 Xrotation Yrotation Zrotation
								End Site
								{
									OFFSET -0.000179 20.275787 -0.000000
								}
							}
						}
					}
				}
				JOINT RightShoulder
				{
					OFFSET -5.731700 15.108002 -2.763700
					CHANNELS 3 Xrotation Yrotation Zrotation
					JOINT RightArm
					{
						OFFSET -9.825497 2.506317 -1.597400
						CHANNELS 3 Xrotation Yrotation Zrotation
						JOINT RightForeArm
						{
							OFFSET -21.966242 0.000000 0.000000
							CHANNELS 3 Xrotation Yrotation Zrotation
							JOINT RightHand
							{
								OFFSET -33.879032 0.000000 0.000000
								CHANNELS 3 Xrotation Yrotation Zrotation
								JOINT RightHandThumb1
								{
									OFFSET -6.715286 -2.359680 3.363841
									CHANNELS 3 Xrotation Yrotation Zrotation
									JOINT RightHandThumb2
									{
										OFFSET -2.507072 -1.447464 1.447461
										CHANNELS 3 Xrotation Yrotation Zrotation
										JOINT RightHandThumb3
										{
											OFFSET -2.898338 -1.673355 1.673357
											CHANNELS 3 Xrotation Yrotation Zrotation
											End Site
											{
												OFFSET 0.295959 3.727692 -0.131651
											}
										}
									}
								}
								JOINT RightHandIndex1
								{
									OFFSET -14.190811 -0.254547 3.840278
									CHANNELS 3 Xrotation Yrotation Zrotation
									JOINT RightHandIndex2
									{
										OFFSET -3.551727 0.000000 -0.000000
										CHANNELS 3 Xrotation Yrotation Zrotation
										JOINT RightHandIndex3
										{
											OFFSET -2.894196 0.000000 0.000000
											CHANNELS 3 Xrotation Yrotation Zrotation
											End Site
											{
												OFFSET 1.000603 2.690872 0.366626
											}
										}
									}
								}
								JOINT RightHandMiddle1
								{
									OFFSET -13.776489 0.000000 0.000000
									CHANNELS 3 Xrotation Yrotation Zrotation
									JOINT RightHandMiddle2
									{
										OFFSET -3.438232 0.000000 0.000000
										CHANNELS 3 Xrotation Yrotation Zrotation
										JOINT RightHandMiddle3
										{
											OFFSET -3.691551 0.000000 0.000000
											CHANNELS 3 Xrotation Yrotation Zrotation
											End Site
											{
												OFFSET 1.082298 3.499527 0.457670
											}
										}
									}
								}
								JOINT RightHandRing1
								{
									OFFSET -13.966164 -0.268127 -3.067488
									CHANNELS 3 Xrotation Yrotation Zrotation
									JOINT RightHandRing2
									{
										OFFSET -3.162567 0.000000 0.000000
										CHANNELS 3 Xrotation Yrotation Zrotation
										JOINT RightHandRing3
										{
											OFFSET -3.324348 0.000000 0.000000
											CHANNELS 3 Xrotation Yrotation Zrotation
											End Site
											{
												OFFSET 0.861900 3.184998 0.405154
											}
										}
									}
								}
								JOINT RightHandPinky1
								{
									OFFSET -13.131393 -0.168503 -5.746925
									CHANNELS 3 Xrotation Yrotation Zrotation
									JOINT RightHandPinky2
									{
										OFFSET -2.849182 0.000000 0.000000
										CHANNELS 3 Xrotation Yrotation Zrotation
										JOINT RightHandPinky3
										{
											OFFSET -2.805038 0.000000 0.000000
											CHANNELS 3 Xrotation Yrotation Zrotation
											End Site
											{
												OFFSET 0.882500 2.642609 0.325652
											}
										}
									}
								}
							}
							JOINT Right_Sleeve
							{
								OFFSET -6.592125 -0.646545 0.805568
								CHANNELS 3 Xrotation Yrotation Zrotation
								End Site
								{
									OFFSET 0.000179 20.275787 -0.000000
								}
							}
						}
					}
				}
				JOINT Bind_Right_JacketString
				{
					OFFSET -3.534800 11.969597 7.200700
					CHANNELS 3 Xrotation Yrotation Zrotation
					JOINT Bind_Right_JacketString1
					{
						OFFSET -0.319900 -6.102600 2.794100
						CHANNELS 3 Xrotation Yrotation Zrotation
						End Site
						{
							OFFSET 0.000000 6.719452 0.000000
						}
					}
				}
				JOINT Bind_Left_JacketString
				{
					OFFSET 2.904800 11.969597 7.200700
					CHANNELS 3 Xrotation Yrotation Zrotation
					JOINT Bind_Left_JacketString1
					{
						OFFSET 0.364800 -5.904503 3.186800
						CHANNELS 3 Xrotation Yrotation Zrotation
						End Site
						{
							OFFSET 0.000000 6.719513 0.000000
						}
					}
				}
				JOINT HairE
				{
					OFFSET 5.915200 17.612701 -11.592200
					CHANNELS 3 Xrotation Yrotation Zrotation
					JOINT HairE1
					{
						OFFSET 0.289200 -7.171898 -1.284500
						CHANNELS 3 Xrotation Yrotation Zrotation
						End Site
						{
							OFFSET 0.000000 7.291756 0.000000
						}
					}
				}
				JOINT HairF
				{
					OFFSET -0.864800 17.612701 -11.592200
					CHANNELS 3 Xrotation Yrotation Zrotation
					JOINT HairF1
					{
						OFFSET 0.000000 -14.087097 -2.127501
						CHANNELS 3 Xrotation Yrotation Zrotation
						End Site
						{
							OFFSET 0.000000 14.246841 0.000000
						}
					}
				}
				JOINT HairG
				{
					OFFSET -8.087700 17.612701 -11.592200
					CHANNELS 3 Xrotation Yrotation Zrotation
					JOINT HairG1
					{
						OFFSET -0.293600 -6.081398 -0.910100
						CHANNELS 3 Xrotation Yrotation Zrotation
						End Site
						{
							OFFSET 0.000000 6.156120 0.000000
						}
					}
				}
			}
		}
	}
	JOINT Pouch
	{
		OFFSET 0.000000 4.394501 10.847300
		CHANNELS 3 Xrotation Yrotation Zrotation
		End Site
		{
			OFFSET 0.000000 21.880577 0.000000
		}
	}
	JOINT Bag
	{
		OFFSET -13.229000 4.813004 -0.593300
		CHANNELS 3 Xrotation Yrotation Zrotation
		End Site
		{
			OFFSET 0.000000 21.880577 0.000000
		}
	}
	JOINT OccupyGuyFacialAnim_Joint
	{
		OFFSET 1.000000 -70.206398 -1.655000
		CHANNELS 3 Xrotation Yrotation Zrotation
		End Site
		{
			OFFSET 0.000000 21.880577 0.000000
		}
	}
}
MOTION
Frames: 4
Frame Time: 0.016667
-1.695395 66.153549 37.922115 29.999847 6.942168 -18.636803 -0.000001 -0.000002 -0.000000 -64.280276 -1.421670 13.117027 40.685156 6.700692 -7.725888 -7.630292 -0.320824 7.714091 0.000000 0.000000 -0.000000 -0.000001 0.000003 0.000001 -10.846609 -25.195724 -18.767900 81.664003 -5.120363 -2.860637 26.499655 0.583667 3.475503 -0.000002 -0.000000 0.000000 0.000003 -0.000000 -0.000002 5.933580 11.244479 -7.389163 11.648223 11.205356 -7.545695 11.698374 11.155140 -7.567838 -9.883396 -7.149089 7.463527 -30.256324 -33.917664 18.385671 -0.000000 0.000000 0.000000 -0.000000 0.000000 0.000000 -0.000000 0.000000 0.000000 -0.000000 0.000000 0.000000 -0.000000 0.000001 0.000000 -0.000000 0.000000 0.000000 -0.000000 0.000001 0.000000 -0.000000 0.000000 0.000000 -0.000000 0.000000 0.000000 -0.266290 3.848959 2.890078 28.180054 -44.869828 -18.300146 -0.000004 -24.379722 -0.000000 -6.282363 38.817003 -1.221397 -3.708749 -5.344619 -9.285599 10.685389 16.536441 0.020119 0.000000 -0.000000 -0.000001 0.013980 0.439245 -3.642313 0.025879 0.597760 -4.959532 0.000003 0.000002 0.000000 0.013845 0.437328 -3.626332 0.026056 0.599671 -4.975525 -0.000001 0.000001 0.000001 0.013981 0.439256 -3.642311 0.025873 0.597748 -4.959534 -0.000001 -0.000001 -0.000003 0.254043 4.486454 -3.142209 0.013189 -3.456763 -5.468400 -0.000002 -0.000004 0.000001 -0.000000 -0.000001 -0.000000 4.952163 16.802288 -7.381380 -6.598529 60.118212 21.651636 -0.000004 37.609132 -0.000009 -29.432590 -31.794995 -16.154801 31.276478 -0.747364 -0.159464 -3.876745 -9.680794 -4.069556 -0.000002 -0.000001 0.000002 0.578529 -2.781513 23.494929 0.464459 -2.503098 21.020985 -0.000006 0.000001 0.000001 0.578529 -2.781513 23.494930 0.464479 -2.503103 21.020980 0.000003 -0.000000 0.000001 0.578531 -2.781494 23.494925 0.464469 -2.503104 21.020985 -0.000004 -0.000001 -0.000002 0.578525 -2.781505 23.494925 0.464476 -2.503109 21.020986 0.000004 -0.000001 0.000000 -0.000000 0.000001 -0.000001 0.000002 0.000001 0.000001 0.000003 0.000001 -0.000001 0.000002 0.000001 0.000001 0.000002 0.000001 0.000001 0.000002 0.000001 0.000001 0.000003 0.000001 -0.000000 0.000002 0.000001 0.000001 0.000002 0.000001 0.000001 0.000002 0.000001 0.000001 0.000003 0.000001 -0.000000 -0.000001 -0.000002 -0.000000 -0.000001 -0.000002 -0.000000 -0.000001 -0.000002 -0.000000 
-1.713961 66.143768 38.045742 29.110782 7.386544 -18.501459 0.000001 0.000000 0.000001 -63.496362 -0.880756 13.200180 41.005765 6.080018 -7.583801 -7.925567 -0.311268 7.765916 0.000000 -0.000000 0.000000 0.000001 0.000000 0.000001 -11.728850 -24.852253 -18.186048 79.821634 -4.158386 -2.997076 26.581962 0.384739 2.325395 0.000002 0.000002 -0.000001 0.000000 0.000000 0.000002 5.951927 10.638221 -7.725035 11.676778 10.962421 -7.565065 11.760146 10.875367 -7.587001 -9.995536 -7.064432 7.301284 -30.252578 -33.572992 18.432234 -0.000002 0.000000 -0.000000 -0.000002 0.000000 -0.000000 -0.000002 0.000000 -0.000000 -0.000002 0.000000 -0.000000 -0.000002 0.000000 0.000000 -0.000002 0.000000 -0.000000 -0.000002 0.000000 0.000000 -0.000002 0.000000 -0.000000 -0.000002 0.000000 -0.000000 -0.255793 3.725910 3.215389 28.574276 -46.646015 -14.108382 -0.000002 -23.223220 -0.000003 -8.175407 37.907410 -1.748932 -3.708749 -5.344618 -9.285601 10.685389 16.536445 0.020117 0.000001 -0.000000 0.000001 0.013979 0.439244 -3.642317 0.025882 0.597760 -4.959532 0.000003 -0.000002 -0.000002 0.013841 0.437332 -3.626334 0.026058 0.599666 -4.975529 0.000002 0.000000 -0.000001 0.013977 0.439257 -3.642307 0.025877 0.597747 -4.959537 -0.000000 -0.000003 -0.000002 0.254040 4.486455 -3.142210 0.013191 -3.456765 -5.468395 -0.000002 -0.000002 -0.000001 0.000001 -0.000002 0.000000 4.755303 16.291738 -6.875272 -6.385739 57.667130 19.002392 -0.000013 35.965594 0.000028 -31.597223 -30.685400 -17.384524 31.221345 -0.795032 -0.187878 -3.869662 -9.704027 -4.071616 0.000001 0.000000 0.000001 0.577756 -2.779699 23.478787 0.463238 -2.499875 20.992726 -0.000001 0.000001 -0.000001 0.577755 -2.779694 23.478782 0.463238 -2.499879 20.992730 0.000000 -0.000001 0.000001 0.577752 -2.779686 23.478775 0.463238 -2.499868 20.992728 -0.000000 0.000000 0.000001 0.577753 -2.779703 23.478784 0.463243 -2.499868 20.992725 0.000002 0.000002 0.000001 -0.000005 -0.000000 0.000001 0.000001 -0.000001 0.000000 -0.000001 -0.000001 0.000000 0.000001 -0.000001 0.000002 0.000001 -0.000001 0.000002 0.000001 -0.000001 0.000000 -0.000001 -0.000001 0.000001 0.000001 -0.000001 0.000002 0.000001 -0.000001 0.000002 0.000001 -0.000001 0.000000 -0.000001 -0.000001 0.000001 0.000001 0.000000 0.000001 0.000001 0.000000 0.000001 0.000001 0.000000 0.000001 
-1.720993 66.146851 38.164124 28.221023 7.825728 -18.389248 -0.000000 -0.000000 0.000001 -62.709763 -0.231202 13.300724 41.252509 5.351792 -7.372237 -8.188950 -0.303751 7.847374 -0.000000 -0.000000 -0.000000 -0.000001 0.000000 -0.000000 -12.608569 -24.438456 -17.610080 77.937212 -3.342014 -3.268980 26.616689 0.301746 1.812639 0.000001 -0.000001 -0.000001 0.000001 0.000002 0.000002 5.987667 10.000953 -8.070663 11.743710 10.656880 -7.606246 11.860007 10.534740 -7.618953 -10.124075 -6.973874 7.156030 -30.258773 -33.172473 18.493000 0.000001 -0.000000 -0.000000 0.000001 -0.000000 -0.000000 0.000001 -0.000000 -0.000000 0.000001 -0.000000 -0.000000 -0.000001 -0.000000 -0.000000 0.000001 -0.000000 -0.000000 -0.000001 -0.000000 -0.000000 0.000001 -0.000000 -0.000000 0.000001 -0.000000 -0.000000 -0.246502 3.605291 3.561326 28.114720 -48.438872 -10.572347 -0.000000 -21.961911 0.000003 -10.198603 36.602642 -1.666796 -3.708750 -5.344616 -9.285601 10.685387 16.536443 0.020115 0.000001 0.000002 0.000001 0.013977 0.439246 -3.642311 0.025884 0.597759 -4.959532 0.000003 0.000002 -0.000003 0.013843 0.437330 -3.626334 0.026057 0.599672 -4.975528 -0.000001 0.000000 -0.000001 0.013974 0.439257 -3.642305 0.025878 0.597746 -4.959533 -0.000000 -0.000001 -0.000003 0.254043 4.486453 -3.142210 0.013192 -3.456768 -5.468397 0.000000 0.000000 0.000001 -0.000000 0.000001 -0.000000 4.570562 15.669523 -6.602635 -6.422809 55.485861 16.577509 0.000003 34.357600 0.000007 -33.438062 -29.057442 -18.368955 31.163927 -0.844552 -0.217471 -3.862224 -9.728358 -4.073796 -0.000000 -0.000002 -0.000001 0.576940 -2.777847 23.461976 0.461904 -2.496404 20.962139 -0.000000 0.000001 -0.000001 0.576939 -2.777854 23.461992 0.461902 -2.496406 20.962131 -0.000001 -0.000000 -0.000001 0.576939 -2.777827 23.461982 0.461900 -2.496427 20.962132 0.000002 0.000000 -0.000000 0.576937 -2.777841 23.461980 0.461898 -2.496431 20.962141 0.000001 0.000000 -0.000001 0.000004 -0.000000 -0.000001 0.000001 -0.000000 0.000002 0.000002 0.000000 0.000002 0.000001 -0.000000 0.000002 0.000001 -0.000000 0.000002 0.000001 -0.000000 0.000002 0.000002 0.000000 0.000002 0.000001 -0.000000 0.000002 0.000001 -0.000000 0.000002 0.000001 -0.000000 0.000002 0.000002 0.000000 0.000002 -0.000000 -0.000000 0.000001 -0.000000 -0.000000 0.000001 -0.000000 -0.000000 0.000001 
-1.703693 66.159317 38.276905 27.319520 8.265608 -18.281426 -0.000002 0.000000 -0.000000 -61.906266 0.495638 13.369104 41.452476 4.580881 -7.072677 -8.436166 -0.299116 7.938132 0.000000 -0.000002 -0.000000 0.000001 0.000003 0.000001 -13.482548 -23.958560 -17.055706 75.984543 -2.644559 -3.638870 26.571804 0.278912 1.635202 0.000001 0.000001 -0.000001 0.000000 0.000000 -0.000001 6.043398 9.318528 -8.421828 11.857649 10.258354 -7.663920 12.006336 10.104660 -7.655092 -10.259053 -6.869438 7.028369 -30.230708 -32.681533 18.611091 -0.000000 -0.000000 -0.000000 -0.000000 -0.000000 -0.000000 -0.000000 -0.000000 0.000000 -0.000000 -0.000000 -0.000000 -0.000000 -0.000000 -0.000000 -0.000000 -0.000000 -0.000000 -0.000000 -0.000000 -0.000000 -0.000000 -0.000000 -0.000000 -0.000000 -0.000000 -0.000000 -0.235976 3.479654 3.929600 26.629926 -50.227654 -7.789995 -0.000012 -20.582005 0.000010 -12.116070 35.063852 -1.214165 -3.708748 -5.344625 -9.285599 10.685388 16.536441 0.020119 0.000001 0.000005 -0.000001 0.013975 0.439239 -3.642311 0.025881 0.597759 -4.959538 0.000003 -0.000002 -0.000002 0.013841 0.437325 -3.626334 0.026059 0.599673 -4.975529 0.000001 0.000004 -0.000000 0.013978 0.439253 -3.642306 0.025875 0.597751 -4.959534 0.000003 -0.000002 0.000001 0.254041 4.486449 -3.142209 0.013189 -3.456766 -5.468395 -0.000001 -0.000002 0.000003 0.000001 -0.000000 0.000001 4.407070 14.991000 -6.564028 -6.689378 53.585996 14.333821 -0.000018 32.841462 0.000017 -34.852024 -27.174355 -18.930496 31.104425 -0.895792 -0.248177 -3.854500 -9.753757 -4.076061 0.000001 -0.000001 -0.000001 0.576082 -2.775886 23.444551 0.460483 -2.492699 20.929330 0.000003 -0.000001 -0.000003 0.576082 -2.775898 23.444554 0.460486 -2.492702 20.929344 0.000003 -0.000002 0.000001 0.576085 -2.775866 23.444546 0.460478 -2.492714 20.929346 0.000002 0.000001 -0.000003 0.576089 -2.775889 23.444546 0.460480 -2.492700 20.929335 -0.000003 0.000000 -0.000001 0.000001 0.000001 0.000001 -0.000001 -0.000001 0.000000 -0.000001 -0.000000 0.000000 -0.000001 -0.000001 -0.000001 -0.000001 -0.000001 -0.000001 -0.000001 -0.000001 0.000000 -0.000001 -0.000000 0.000001 -0.000001 -0.000001 -0.000001 -0.000001 -0.000001 -0.000001 -0.000001 -0.000001 0.000000 -0.000001 -0.000000 0.000001 -0.000002 0.000000 -0.000000 -0.000002 0.000000 -0.000000 -0.000002 0.000000 -0.000000 
